<?xml version="1.0" standalone="no"?>
<!DOCTYPE svg PUBLIC "-//W3C//DTD SVG 20010904//EN"
 "http://www.w3.org/TR/2001/REC-SVG-20010904/DTD/svg10.dtd">
<svg version="1.0" xmlns="http://www.w3.org/2000/svg"
 width="250.000000pt" height="250.000000pt" viewBox="0 0 250.000000 250.000000"
 preserveAspectRatio="xMidYMid meet">
<metadata>
Created by potrace 1.14, written by Peter Selinger 2001-2017
</metadata>
<g transform="translate(0.000000,250.000000) scale(0.100000,-0.100000)"
fill="#000000" stroke="none">
<path d="M385 2133 c-34 -19 -61 -48 -76 -83 -12 -28 -15 -1555 -3 -1593 12
-40 47 -79 83 -94 44 -19 111 -19 122 -1 5 7 9 9 9 5 0 -10 87 39 108 60 21
20 36 16 60 -17 31 -41 78 -63 134 -63 42 1 69 14 265 133 120 73 230 140 245
149 14 9 73 44 130 78 57 34 207 125 333 202 127 78 258 157 293 177 81 47
117 97 115 165 -1 82 -22 103 -267 251 -121 73 -228 138 -238 143 -9 6 -76 46
-148 90 -72 44 -156 95 -188 114 -31 19 -154 93 -272 165 -213 130 -216 131
-275 131 -65 0 -102 -19 -136 -71 l-16 -24 -59 38 c-32 20 -72 43 -87 50 -38
16 -96 15 -132 -5z"/>
</g>
</svg>
