<svg version="1" xmlns="http://www.w3.org/2000/svg" width="997.333" height="997.333" viewBox="0 0 748.000000 748.000000"><path d="M54.9 22.4c-.2.2-1.7.6-3.4.9-5.2.9-13.9 3.9-16.5 5.6-1.4.9-3.8 2.3-5.4 3.1-1.6.8-6.2 4.6-10.1 8.5-9.1 8.9-15.4 19.8-18.1 31.7C.9 74 .5 209.4.4 373 .2 620.8.3 671.5 1.5 676.3c1.5 6.4 5.6 17 6.8 17.5.4.2.7 1 .7 1.8s.5 1.4 1 1.4c.6 0 1 .5 1 1.1 0 3.4 13.8 16.2 22.7 21.2 11.5 6.3 28.2 9.1 40.3 6.7 3-.6 6.6-1.3 8-1.6 2.7-.5 20.5-9.2 22.5-10.9.6-.5 2.6-1.8 4.5-2.8 6.4-3.4 9.5-5.2 10-5.7.3-.3 3.2-1.9 6.4-3.5 4.8-2.5 6-2.7 6.4-1.5.7 2.5 14.5 15.4 18.7 17.5 2.2 1.1 4.7 2.5 5.5 3.1.8.6 4.9 2.2 9 3.5 6.2 2 9.6 2.4 19 2.3 10.4 0 12.4-.3 20.9-3.3 5.2-1.8 10.3-4.1 11.4-5.2 1.2-1 2.4-1.9 2.8-1.9.4 0 10.4-5.6 22.4-12.5 11.9-6.9 22.1-12.5 22.6-12.5s.9-.4.9-.8 2.6-2.1 5.8-3.7c3.1-1.6 6.3-3.5 7-4.2.7-.7 2.4-1.6 3.8-1.9 1.3-.3 2.4-1 2.4-1.5s.5-.9 1-.9c.6 0 4.4-2 8.4-4.5 4.1-2.5 7.7-4.5 8.1-4.5.4 0 2.6-1.4 5-3 2.4-1.7 4.6-3 4.8-3 .3 0 4.3-2.2 8.9-4.9 4.5-2.7 10.3-6.1 12.8-7.5 2.5-1.5 6.1-3.4 8-4.4 1.9-.9 3.7-2 4-2.3.3-.4 2.3-1.7 4.5-2.9s5.6-3 7.5-4.2c1.9-1.1 8.7-5 15-8.6 6.3-3.6 11.7-6.9 12-7.2.3-.3 1.2-.6 2-.8.8-.2 1.7-.8 1.8-1.3.2-.5.9-.9 1.7-.9.7 0 1.8-.7 2.5-1.5s1.6-1.3 2-1c.5.3 1.1.1 1.4-.4.5-.8 2.8-2.2 15.2-9.1 9.2-5.3 20-11.5 20.4-12 .3-.3 2.3-1.4 4.5-2.5s4.7-2.5 5.5-3.1c.8-.7 3.8-2.4 6.5-3.9 2.8-1.4 6.4-3.5 8-4.5 1.7-1 5.2-3.1 8-4.6 2.7-1.5 7.8-4.4 11.3-6.5 3.5-2.2 6.8-3.9 7.2-3.9.5 0 1.5-.6 2.2-1.3.7-.7 3.8-2.6 6.8-4.2s6.6-3.7 8-4.6c1.4-.9 4.5-2.7 7-4.1 8.6-4.8 11.9-6.7 15.9-9.2 2.2-1.5 4.3-2.6 4.5-2.6.4 0 12.8-7 17.6-10 .8-.5 6.5-3.7 12.5-7.1 6.1-3.5 11.2-6.7 11.3-7.1.2-.4.8-.8 1.3-.8.6 0 4.8-2.3 9.5-5s8.9-5 9.4-5c.6 0 1-.4 1-.8 0-.5 1.7-1.6 3.8-2.6 2-1 4.8-2.5 6.2-3.4 1.4-.9 2.7-1.7 3-1.7.3 0 1.6-.8 3-1.6 6.1-3.9 20.3-11.9 21.1-11.9.5 0 .9-.4.9-.9s1.2-1.4 2.8-2c1.5-.6 4.1-1.9 5.7-2.8 1.7-1 6.8-4 11.5-6.7s12.7-7.4 17.7-10.3c5.1-3 9.5-5.3 9.9-5.3.4.1 1-.3 1.3-.8.3-.5 2.9-2.2 5.6-3.6 2.8-1.5 6.8-3.8 9-5.2 2.2-1.3 5.7-3.3 7.7-4.4 10.8-5.8 22.9-13.5 27.8-17.7 21-18 27.6-48.1 16.2-73.9-1.6-3.6-3.6-7.4-4.3-8.3-.8-.9-2.2-2.9-3.2-4.4-4.2-6.4-19.7-18.6-27.9-21.8-1.6-.6-2.8-1.4-2.8-1.7 0-.4-2-1.6-4.5-2.7s-4.5-2.3-4.5-2.7c0-.5-.4-.8-1-.8-.5 0-4.2-1.9-8.2-4.3-4-2.4-8-4.6-8.8-5-.8-.4-2.8-1.6-4.5-2.7-1.6-1-4.1-2.5-5.5-3.3-8.3-4.6-12.9-7.3-16.2-9.4-2.1-1.2-4.2-2.3-4.8-2.3-.5 0-1-.4-1-.8s-1.6-1.4-3.5-2.1c-1.9-.7-3.5-1.7-3.5-2.2 0-.5-.4-.9-.9-.9-.9 0-18.4-9.8-35.9-20.1-4.5-2.7-8.7-4.9-9.2-4.9-.6 0-1-.4-1-.9s-.6-1.1-1.2-1.3c-1.1-.2-20.1-10.9-24.8-13.8-4.1-2.6-29.3-17-29.7-17-.2 0-2.3-1.3-4.6-2.9-2.3-1.6-4.4-2.8-4.7-2.8-.3 0-1.6-.6-3-1.5-6.2-3.9-22.2-12.8-23.1-12.8-.5 0-.9-.4-.9-.9s-.8-1.1-1.7-1.4c-1-.4-3.8-1.8-6.3-3.3-2.5-1.5-6.1-3.6-8-4.7-1.9-1.1-4.8-2.8-6.5-3.8-1.6-1-4.1-2.4-5.5-3.2-1.4-.8-4.7-2.6-7.5-4.2-2.7-1.6-5.9-3.3-7-3.9-1.1-.6-2.2-1.3-2.5-1.6-1-1-15.3-9-16.1-9-.5 0-.9-.5-.9-1 0-.6-.6-1-1.3-1-.7 0-3.3-1.3-5.8-2.8-2.4-1.6-6.9-4.2-9.9-5.9-7.1-3.9-17.8-10.1-21-12.1-1.4-.9-2.8-1.5-3.2-1.4-.5.1-.8-.3-.8-.8 0-.6-.4-1-1-1-.5 0-3.9-1.8-7.5-4s-6.8-4-7-4c-.3 0-2.4-1.2-4.8-2.7-2.3-1.5-6-3.7-8.2-4.9-2.2-1.1-5.4-2.9-7.2-4-11.1-6.6-21.5-12.4-22.4-12.4-.5 0-1.2-.7-1.5-1.5-.4-.8-1.4-1.5-2.4-1.5-1.1 0-2.1-.4-2.4-.9-.7-1.1-20.9-12.6-21.5-12.2-.2.1-.7-.1-1-.7-.5-.8-10.3-6.6-16.9-10.1-1.5-.8-2.9-1.7-3.2-2-.3-.3-2.3-1.5-4.5-2.6s-6.2-3.4-9-5.1c-2.7-1.7-8.1-4.8-12-6.9-3.8-2.1-9.4-5.3-12.3-7.2-2.9-1.8-5.4-3.3-5.6-3.3-.2 0-5.5-3-11.7-6.6-17.5-10.2-23-13-28.4-14.9-7.2-2.4-8.1-2.6-17.7-3.2-8.6-.5-23 1.6-25.3 3.8-.5.5-1.6.9-2.5.9-.8 0-4.9 2.2-9.1 4.9-7 4.4-12.5 9.4-17.6 15.9l-1.9 2.4-4.2-2.4c-2.4-1.2-5.1-2.8-6-3.3-30.9-18.4-39-21.7-54.3-22.1-5.8-.2-10.8-.2-11 0z"/></svg>